<svg xmlns="http://www.w3.org/2000/svg" viewBox="0 0 420 520" fill="none">
  <defs>
    <linearGradient id="bg" x1="34" y1="24" x2="384" y2="496" gradientUnits="userSpaceOnUse">
      <stop stop-color="#FCFAF6"/><stop offset="1" stop-color="#F7F0E7"/>
    </linearGradient>
    <linearGradient id="dress" x1="136" y1="304" x2="295" y2="446" gradientUnits="userSpaceOnUse">
      <stop stop-color="#C7A03F"/><stop offset="1" stop-color="#AA7E22"/>
    </linearGradient>
  </defs>
  <rect width="420" height="520" rx="44" fill="url(#bg)"/>
  <circle cx="88" cy="106" r="42" fill="#0F5E64" fill-opacity=".07"/>
  <circle cx="325" cy="94" r="56" fill="#916CA4" fill-opacity=".12"/>
  <ellipse cx="210" cy="474" rx="88" ry="16" fill="#D7C8AE"/>
  <path d="M126 326c10-68 45-110 84-110 39 0 73 42 84 110l8 80H118l8-80Z" fill="url(#dress)"/>
  <path d="M170 262h80l-6 58c-2 18-17 31-35 31h-2c-18 0-33-13-35-31l-2-58Z" fill="#F6E9D9"/>
  <path d="M152 176c0-50 26-98 58-98 31 0 57 48 57 98v43c0 35-26 66-57 66-32 0-58-31-58-66v-43Z" fill="#D9A67E"/>
  <path d="M140 191c0-91 31-139 76-139 45 0 83 45 83 128 0 34-8 57-20 79-5-36-17-61-37-79-10-9-22-14-37-14-25 0-47 8-65 25Z" fill="#5A416F"/>
  <path d="M160 120c15 12 35 19 61 19 20 0 38-4 54-14-8-34-31-57-58-57-29 0-49 18-57 52Z" fill="#5A416F"/>
  <circle cx="184" cy="202" r="5.6" fill="#2D2928"/>
  <circle cx="235" cy="202" r="5.6" fill="#2D2928"/>
  <path d="M171 188c6-5 15-7 25-6" stroke="#3B312E" stroke-width="4.5" stroke-linecap="round"/>
  <path d="M221 182c8-3 16-1 24 4" stroke="#3B312E" stroke-width="4.5" stroke-linecap="round"/>
  <path d="M212 198c-2 13-5 24-13 33 9 4 19 4 28 2" stroke="#A56749" stroke-width="4" stroke-linecap="round" stroke-linejoin="round"/>
  <path d="M190 238c13 10 31 10 44 0" stroke="#A55D52" stroke-width="4.5" stroke-linecap="round"/>
  <path d="M160 290l48 34 53-34" stroke="#FFF" stroke-width="18" stroke-linejoin="round" stroke-linecap="round"/>
  <path d="M203 326h14v82h-14z" fill="#F2F3F4"/>
  <path d="M141 321c-5 15-8 30-8 47v32h54l-7-39c-3-13-10-25-20-35l-19-18Z" fill="#B78A28"/>
  <path d="M279 321c5 15 8 30 8 47v32h-54l7-39c3-13 10-25 20-35l19-18Z" fill="#A2761D"/>
</svg>
