<svg xmlns="http://www.w3.org/2000/svg" viewBox="0 0 420 520" fill="none">
  <defs>
    <linearGradient id="bgN16" x1="40" y1="30" x2="380" y2="490" gradientUnits="userSpaceOnUse">
      <stop stop-color="#FCFAF6"/>
      <stop offset="1" stop-color="#EEF7F5"/>
    </linearGradient>
    <linearGradient id="shirtN16" x1="132" y1="300" x2="292" y2="448" gradientUnits="userSpaceOnUse">
      <stop stop-color="#1E7E80"/>
      <stop offset="1" stop-color="#0F5E64"/>
    </linearGradient>
  </defs>
  <rect width="420" height="520" rx="44" fill="url(#bgN16)"/>
  <circle cx="320" cy="100" r="58" fill="#D8B97C" fill-opacity=".16"/>
  <circle cx="88" cy="112" r="42" fill="#0F5E64" fill-opacity=".08"/>
  <ellipse cx="210" cy="474" rx="86" ry="16" fill="#D7C8AE"/>
  <path d="M130 324c10-62 43-102 80-102 37 0 70 40 80 102l10 82H120l10-82Z" fill="url(#shirtN16)"/>
  <path d="M169 260h82l-7 54c-2 18-17 31-35 31h-1c-18 0-33-13-35-31l-4-54Z" fill="#F5E7D4"/>
  <path d="M155 179c0-42 25-92 55-92 31 0 56 49 56 92v39c0 32-25 62-56 62-30 0-55-30-55-62v-39Z" fill="#D8A47C"/>
  <path d="M267 185c-4-52-26-104-59-104-38 0-64 41-67 96-4-6-7-14-7-28 0-60 34-112 78-112 45 0 81 52 81 116 0 13-3 24-6 32-5-1-14-1-20 0Z" fill="#243947"/>
  <path d="M159 163c12-6 29-11 51-11 26 0 46 6 61 15v-19c0-36-24-69-61-69-34 0-58 30-58 67l7 17Z" fill="#243947"/>
  <circle cx="183" cy="197" r="5.5" fill="#2D2928"/>
  <circle cx="236" cy="197" r="5.5" fill="#2D2928"/>
  <path d="M170 185c8-6 18-8 28-6" stroke="#3B312E" stroke-width="4.5" stroke-linecap="round"/>
  <path d="M222 179c9-3 18-1 27 5" stroke="#3B312E" stroke-width="4.5" stroke-linecap="round"/>
  <path d="M214 194c-2 13-6 24-13 33 9 4 18 5 28 3" stroke="#A56749" stroke-width="4" stroke-linecap="round" stroke-linejoin="round"/>
  <path d="M188 236c14 10 33 10 47 0" stroke="#A65E53" stroke-width="4.5" stroke-linecap="round"/>
  <path d="M160 287l48 34 52-34" stroke="#FFFFFF" stroke-width="18" stroke-linejoin="round" stroke-linecap="round"/>
  <path d="M203 323h14v88h-14z" fill="#DCECE8"/>
  <path d="M145 320c-5 14-7 29-7 45v34h52l-8-38c-3-13-10-26-20-36l-17-17Z" fill="#157174"/>
  <path d="M275 320c5 14 7 29 7 45v34h-52l8-38c3-13 10-26 20-36l17-17Z" fill="#0E5B61"/>
</svg>
