<svg xmlns="http://www.w3.org/2000/svg" viewBox="0 0 420 520" fill="none">
  <defs>
    <linearGradient id="bg" x1="32" y1="28" x2="388" y2="492" gradientUnits="userSpaceOnUse">
      <stop stop-color="#FCFAF6"/><stop offset="1" stop-color="#EEF7F5"/>
    </linearGradient>
    <linearGradient id="shirt" x1="128" y1="312" x2="292" y2="444" gradientUnits="userSpaceOnUse">
      <stop stop-color="#1C7A7C"/><stop offset="1" stop-color="#0F5E64"/>
    </linearGradient>
  </defs>
  <rect width="420" height="520" rx="44" fill="url(#bg)"/>
  <circle cx="89" cy="104" r="42" fill="#0F5E64" fill-opacity=".07"/>
  <circle cx="322" cy="96" r="54" fill="#D3B173" fill-opacity=".14"/>
  <ellipse cx="210" cy="474" rx="88" ry="16" fill="#D7C8AE"/>
  <path d="M128 324c10-66 44-108 82-108s72 42 82 108l8 82H120l8-82Z" fill="url(#shirt)"/>
  <path d="M170 262h82l-7 54c-2 18-17 31-35 31h-1c-18 0-33-13-35-31l-4-54Z" fill="#F5E7D4"/>
  <path d="M154 176c0-47 26-95 57-95 31 0 57 48 57 95v43c0 34-26 65-57 65-31 0-57-31-57-65v-43Z" fill="#D9A67E"/>
  <path d="M143 195c-1-85 31-132 76-132 46 0 77 42 77 121 0 27-5 47-14 67-5-31-19-56-40-71-10-8-24-13-40-13-24 0-43 7-58 28l-1 0Z" fill="#263847"/>
  <path d="M156 168c12-7 29-12 54-12 26 0 47 6 61 14" stroke="#263847" stroke-width="14" stroke-linecap="round"/>
  <circle cx="184" cy="202" r="5.6" fill="#2D2928"/>
  <circle cx="237" cy="202" r="5.6" fill="#2D2928"/>
  <path d="M171 189c7-5 16-7 26-6" stroke="#3B312E" stroke-width="4.5" stroke-linecap="round"/>
  <path d="M223 183c8-3 16-1 25 4" stroke="#3B312E" stroke-width="4.5" stroke-linecap="round"/>
  <path d="M214 198c-2 13-5 24-13 33 9 4 18 5 28 2" stroke="#A56749" stroke-width="4" stroke-linecap="round" stroke-linejoin="round"/>
  <path d="M188 238c14 10 34 10 48 0" stroke="#A55D52" stroke-width="4.5" stroke-linecap="round"/>
  <path d="M161 288l48 34 52-34" stroke="#FFF" stroke-width="18" stroke-linejoin="round" stroke-linecap="round"/>
  <path d="M203 324h14v82h-14z" fill="#E8F3F2"/>
  <path d="M144 320c-5 14-8 30-8 47v33h54l-7-39c-3-13-10-25-20-35l-19-18Z" fill="#197174"/>
  <path d="M276 320c5 14 8 30 8 47v33h-54l7-39c3-13 10-25 20-35l19-18Z" fill="#0E5A60"/>
</svg>
