<svg xmlns="http://www.w3.org/2000/svg" viewBox="0 0 420 520" fill="none">
  <defs>
    <radialGradient id="bg1" cx="0" cy="0" r="1" gradientTransform="translate(210 210) rotate(90) scale(260 220)" gradientUnits="userSpaceOnUse">
      <stop stop-color="#FDFBF7"/>
      <stop offset="1" stop-color="#EEF7F5"/>
    </radialGradient>
    <linearGradient id="shirt" x1="128" y1="310" x2="292" y2="448" gradientUnits="userSpaceOnUse">
      <stop stop-color="#1E7D7F"/>
      <stop offset="1" stop-color="#0F5E64"/>
    </linearGradient>
    <linearGradient id="neck" x1="182" y1="248" x2="237" y2="321" gradientUnits="userSpaceOnUse">
      <stop stop-color="#E1B08B"/>
      <stop offset="1" stop-color="#D59E76"/>
    </linearGradient>
  </defs>
  <rect width="420" height="520" rx="44" fill="url(#bg1)"/>
  <circle cx="88" cy="112" r="44" fill="#0F5E64" fill-opacity=".07"/>
  <circle cx="322" cy="94" r="58" fill="#D7B36F" fill-opacity=".13"/>
  <ellipse cx="210" cy="476" rx="86" ry="16" fill="#D9CCB5"/>
  <path d="M128 328c10-70 45-110 82-110 38 0 72 40 82 110l8 78H120l8-78Z" fill="url(#shirt)"/>
  <path d="M167 260h86l-8 58c-2 18-17 31-36 31h-1c-18 0-33-13-35-31l-6-58Z" fill="#F6E9D8"/>
  <path d="M186 242h48v46h-48z" fill="url(#neck)"/>
  <path d="M153 178c0-52 28-100 58-100 31 0 58 48 58 100v42c0 36-26 66-58 66s-58-30-58-66v-42Z" fill="#D9A67E"/>
  <path d="M143 194c0-89 30-140 77-140 48 0 81 44 81 127 0 31-7 56-19 76-5-33-17-58-38-74-11-8-23-12-40-12-28 0-50 8-61 23Z" fill="#203644"/>
  <path d="M157 165c13-9 30-13 54-13 24 0 45 5 59 15" stroke="#203644" stroke-width="16" stroke-linecap="round"/>
  <path d="M152 145c7-34 28-59 60-59 30 0 52 20 63 56-11-11-35-21-64-21-27 0-48 8-59 24Z" fill="#203644"/>
  <circle cx="184" cy="202" r="5.6" fill="#2A2422"/>
  <circle cx="238" cy="202" r="5.6" fill="#2A2422"/>
  <path d="M170 188c7-5 16-6 26-5" stroke="#3A2F2B" stroke-width="4.6" stroke-linecap="round"/>
  <path d="M223 182c8-2 16-1 25 5" stroke="#3A2F2B" stroke-width="4.6" stroke-linecap="round"/>
  <path d="M214 198c-2 14-5 25-13 34 9 4 18 4 28 2" stroke="#A6674A" stroke-width="4" stroke-linecap="round" stroke-linejoin="round"/>
  <path d="M188 239c14 10 34 10 48 0" stroke="#A75D51" stroke-width="4.6" stroke-linecap="round"/>
  <path d="M159 288l50 35 53-35" stroke="#FFF" stroke-width="19" stroke-linejoin="round" stroke-linecap="round"/>
  <path d="M203 326h14v80h-14z" fill="#E8F3F2"/>
  <path d="M145 322c-5 14-9 31-9 49v31h54l-7-39c-3-14-10-26-20-36l-18-18Z" fill="#187377"/>
  <path d="M275 322c5 14 9 31 9 49v31h-54l7-39c3-14 10-26 20-36l18-18Z" fill="#0E5A60"/>
</svg>
