<svg xmlns="http://www.w3.org/2000/svg" viewBox="0 0 480 280" fill="none"><rect width="480" height="280" rx="28" fill="#F8F4EE"/><circle cx="110" cy="82" r="42" fill="#0F5E64" fill-opacity="0.10"/><circle cx="382" cy="70" r="52" fill="#6D648C" fill-opacity="0.10"/><rect x="58" y="202" width="364" height="12" rx="6" fill="#E3D8C9"/><circle cx="180" cy="130" r="19" fill="#D49F79"/><path d="M160 129c3-20 14-31 22-31 10 0 18 7 21 20 2 4 2 8 1 12-5-3-13-4-22-4s-17 1-22 3z" fill="#22343D"/><path d="M150 200c4-31 16-48 30-48 13 0 25 17 29 48h-16l-6-26-8 6-8-6-5 26h-16z" fill="#0E6B6B"/><circle cx="288" cy="138" r="19" fill="#D49F79"/><path d="M268 137c3-20 13-31 22-31 10 0 18 7 21 20 2 4 2 8 1 12-5-3-13-4-22-4s-17 1-22 3z" fill="#46335C"/><path d="M258 200c4-31 16-48 30-48 13 0 25 17 29 48h-16l-6-26-8 6-8-6-5 26h-16z" fill="#B9912F"/><path d="M219 126c18 8 31 10 39 10" stroke="#95A6AC" stroke-width="5" stroke-linecap="round"/><path d="M215 154c14 12 26 18 38 18" stroke="#95A6AC" stroke-width="5" stroke-linecap="round"/></svg>