<svg xmlns="http://www.w3.org/2000/svg" viewBox="0 0 480 280" fill="none"><rect width="480" height="280" rx="28" fill="#F8F4EE"/><rect x="36" y="204" width="408" height="16" rx="8" fill="#E3D8C9"/><rect x="98" y="74" width="118" height="96" rx="18" fill="#FFFFFF" stroke="#D9D9D0"/><rect x="110" y="88" width="52" height="12" rx="6" fill="#E7F0EE"/><rect x="110" y="110" width="92" height="10" rx="5" fill="#EEF4F3"/><rect x="110" y="128" width="82" height="10" rx="5" fill="#EEF4F3"/><circle cx="284" cy="88" r="28" fill="#D7A25A" fill-opacity="0.18"/><circle cx="372" cy="80" r="42" fill="#0F5E64" fill-opacity="0.10"/><circle cx="250" cy="126" r="18" fill="#D49F79"/><path d="M230 124c3-20 13-31 20-31 10 0 18 7 22 20 1 4 2 8 1 12-6-3-13-4-22-4-9 0-16 1-21 3v0z" fill="#22343D"/><path d="M222 194c4-30 15-47 28-47s24 17 28 47h-15l-5-26-8 6-8-6-5 26h-15z" fill="#0E6B6B"/><path d="M250 147l10 10 10-10 6 8-16 15-16-15 6-8z" fill="#F4F7F7"/><circle cx="334" cy="138" r="18" fill="#D49F79"/><path d="M316 136c2-18 11-28 18-28 9 0 16 6 19 18 2 5 2 10 1 15-5-3-12-4-20-4s-14 1-19 4c0-2 0-4 1-5z" fill="#46335C"/><path d="M306 194c4-29 15-45 28-45 13 0 24 16 28 45h-15l-5-25-8 6-8-6-5 25h-15z" fill="#B9912F"/><path d="M295 147l18 6-5 11-18-6z" fill="#7B94A3"/><path d="M276 150l20 6" stroke="#7B94A3" stroke-width="6" stroke-linecap="round"/><path d="M282 164l15 4" stroke="#7B94A3" stroke-width="6" stroke-linecap="round"/></svg>