<svg xmlns="http://www.w3.org/2000/svg" viewBox="0 0 480 280" fill="none"><rect width="480" height="280" rx="28" fill="#F8F4EE"/><circle cx="102" cy="78" r="38" fill="#0F5E64" fill-opacity="0.08"/><circle cx="386" cy="70" r="52" fill="#C18B72" fill-opacity="0.10"/><rect x="52" y="202" width="376" height="14" rx="7" fill="#E3D8C9"/><circle cx="182" cy="130" r="19" fill="#D49F79"/><path d="M163 128c3-20 13-31 21-31 10 0 18 7 21 20 1 4 2 8 1 12-5-3-13-4-22-4-9 0-16 1-21 3 0-1 0 0 0 0z" fill="#46335C"/><path d="M153 200c4-32 15-49 29-49 13 0 24 17 29 49h-16l-5-27-8 6-8-6-5 27h-16z" fill="#B9912F"/><path d="M246 116l34 34" stroke="#A76755" stroke-width="10" stroke-linecap="round"/><path d="M280 116l-34 34" stroke="#A76755" stroke-width="10" stroke-linecap="round"/><circle cx="352" cy="144" r="18" fill="#FFFFFF" stroke="#D9D9D0"/><path d="M352 133v22" stroke="#0F5E64" stroke-width="6" stroke-linecap="round"/><path d="M341 144h22" stroke="#0F5E64" stroke-width="6" stroke-linecap="round"/></svg>