<svg xmlns="http://www.w3.org/2000/svg" viewBox="0 0 480 280" fill="none">
  <rect width="480" height="280" rx="28" fill="#F8F4EE"/>
  <circle cx="92" cy="74" r="36" fill="#D6B47A" fill-opacity=".15"/>
  <circle cx="390" cy="64" r="52" fill="#5B776B" fill-opacity=".10"/>
  <rect x="56" y="206" width="368" height="12" rx="6" fill="#E3D8C9"/>
  <ellipse cx="272" cy="162" rx="82" ry="18" fill="#EADBC7"/>
  <circle cx="242" cy="158" r="26" fill="#D8A04F"/>
  <path d="M229 153c0-10 7-17 18-17 10 0 17 7 17 17" stroke="#FFF" stroke-width="5" stroke-linecap="round"/>
  <circle cx="274" cy="160" r="16" fill="#5C9055"/>
  <circle cx="301" cy="150" r="12" fill="#A3CA7D"/>
  <rect x="334" y="112" width="54" height="66" rx="24" fill="#A7CAD8"/>
  <rect x="357" y="104" width="8" height="16" rx="4" fill="#7CA8B7"/>
  <path d="M122 143c0-31 21-61 45-61 24 0 45 31 45 61v23c0 23-20 44-45 44-24 0-45-21-45-44v-23Z" fill="#D9A67E"/>
  <path d="M116 145c0-48 24-82 54-82 22 0 41 18 50 50 4 13 4 28 1 44-9-10-22-17-43-17-22 0-38 6-53 18-6-5-9-8-9-13Z" fill="#533A70"/>
  <circle cx="155" cy="151" r="4.4" fill="#2D2928"/>
  <circle cx="191" cy="151" r="4.4" fill="#2D2928"/>
  <path d="M146 143c6-3 12-4 18-2" stroke="#3B312E" stroke-width="3.5" stroke-linecap="round"/>
  <path d="M180 141c5-2 11-1 17 2" stroke="#3B312E" stroke-width="3.5" stroke-linecap="round"/>
  <path d="M171 150c-1 8-4 15-8 21 7 3 13 3 20 2" stroke="#A56749" stroke-width="3" stroke-linecap="round" stroke-linejoin="round"/>
  <path d="M157 177c10 7 22 7 32 0" stroke="#A65E53" stroke-width="3.8" stroke-linecap="round"/>
  <path d="M149 199l28 22 30-22" stroke="#FFF" stroke-width="12" stroke-linejoin="round" stroke-linecap="round"/>
  <path d="M140 203c-3 8-4 16-4 26v18h82v-18c0-10-2-19-5-27l-8-2c-10 14-19 18-28 18-10 0-19-6-29-18l-8 3Z" fill="#B88E2A"/>
  <path d="M198 200c6 7 10 14 13 23" stroke="#FFFFFF" stroke-width="6" stroke-linecap="round"/>
</svg>
