<svg xmlns="http://www.w3.org/2000/svg" viewBox="0 0 480 280" fill="none"><rect width="480" height="280" rx="28" fill="#F8F4EE"/><circle cx="104" cy="82" r="40" fill="#D0A95A" fill-opacity="0.14"/><circle cx="384" cy="72" r="54" fill="#3F6970" fill-opacity="0.10"/><rect x="58" y="204" width="364" height="12" rx="6" fill="#E3D8C9"/><circle cx="184" cy="132" r="19" fill="#D49F79"/><path d="M164 131c3-20 13-31 22-31 10 0 18 7 21 20 2 4 2 8 1 12-5-3-13-4-22-4s-17 1-22 3z" fill="#46335C"/><path d="M154 200c4-31 16-48 30-48 13 0 25 17 29 48h-16l-6-26-8 6-8-6-5 26h-16z" fill="#B9912F"/><path d="M256 118c12 0 22 10 22 22 0 11-9 24-22 39-13-15-22-28-22-39 0-12 10-22 22-22z" fill="#0E6B6B" fill-opacity="0.18"/><path d="M256 126v28" stroke="#0E6B6B" stroke-width="6" stroke-linecap="round"/><path d="M243 140h26" stroke="#0E6B6B" stroke-width="6" stroke-linecap="round"/></svg>