<svg xmlns="http://www.w3.org/2000/svg" viewBox="0 0 480 280" fill="none"><rect width="480" height="280" rx="28" fill="#F8F4EE"/><circle cx="116" cy="84" r="34" fill="#D7A25A" fill-opacity="0.18"/><circle cx="386" cy="76" r="48" fill="#486B7A" fill-opacity="0.10"/><rect x="55" y="202" width="370" height="14" rx="7" fill="#E3D8C9"/><circle cx="148" cy="130" r="18" fill="#D49F79"/><path d="M129 129c3-20 13-31 21-31 10 0 18 7 21 20 1 4 2 8 1 12-5-3-13-4-22-4s-16 1-21 3z" fill="#22343D"/><path d="M119 199c4-31 15-48 29-48 13 0 24 17 29 48h-16l-5-26-8 6-8-6-5 26h-16z" fill="#0E6B6B"/><circle cx="240" cy="130" r="18" fill="#D49F79"/><path d="M221 128c3-20 13-31 21-31 10 0 18 7 21 20 1 4 2 8 1 12-5-3-13-4-22-4s-16 1-21 3z" fill="#46335C"/><path d="M211 199c4-31 15-48 29-48 13 0 24 17 29 48h-16l-5-26-8 6-8-6-5 26h-16z" fill="#B9912F"/><circle cx="332" cy="130" r="18" fill="#D49F79"/><path d="M313 128c3-20 13-31 21-31 10 0 18 7 21 20 1 4 2 8 1 12-5-3-13-4-22-4s-16 1-21 3z" fill="#4E5E6D"/><path d="M303 199c4-31 15-48 29-48 13 0 24 17 29 48h-16l-5-26-8 6-8-6-5 26h-16z" fill="#5E7C6C"/><path d="M171 118l49 0" stroke="#AEBFC1" stroke-width="4" stroke-linecap="round"/><path d="M263 118l49 0" stroke="#AEBFC1" stroke-width="4" stroke-linecap="round"/></svg>