<svg xmlns="http://www.w3.org/2000/svg" viewBox="0 0 480 250" fill="none"><rect width="480" height="250" rx="28" fill="#F8F4EE"/><path d="M84 208h312" stroke="#D9D1C4" stroke-width="10" stroke-linecap="round"/><circle cx="194" cy="92" r="26" fill="#D8A47C"/><rect x="168" y="118" width="54" height="70" rx="22" fill="#0F5E64"/><rect x="256" y="126" width="74" height="52" rx="10" fill="#FFFFFF" stroke="#D9D9D0"/><path d="M275 141h36" stroke="#D8E0E4" stroke-width="6" stroke-linecap="round"/><path d="M275 154h26" stroke="#D8E0E4" stroke-width="6" stroke-linecap="round"/><path d="M342 92c7 0 12 6 12 12 0 14-18 25-18 25s-18-11-18-25c0-6 5-12 12-12 4 0 7 1 10 5 3-4 6-5 10-5Z" fill="#D38B8B"/></svg>
